<?xml version="1.0" standalone="no"?>
<!DOCTYPE svg PUBLIC "-//W3C//DTD SVG 20010904//EN"
 "http://www.w3.org/TR/2001/REC-SVG-20010904/DTD/svg10.dtd">
<svg version="1.0" xmlns="http://www.w3.org/2000/svg"
 width="256.000000pt" height="189.000000pt" viewBox="0 0 256.000000 189.000000"
 preserveAspectRatio="xMidYMid meet">

<g transform="translate(0.000000,189.000000) scale(0.100000,-0.100000)"
fill="#000000" stroke="none">
<path d="M1220 1855 c0 -22 6 -38 15 -41 13 -5 15 -37 15 -200 l0 -194 -55 0
-55 0 0 -44 c0 -43 1 -45 33 -48 l32 -3 5 -610 5 -611 39 -47 c21 -26 42 -47
46 -47 4 0 26 24 49 53 l41 54 0 606 0 607 30 0 c29 0 30 2 30 45 l0 45 -50 0
-50 0 0 195 c0 123 4 195 10 195 6 0 10 18 10 40 l0 40 -75 0 -75 0 0 -35z"/>
<path d="M528 1779 c-3 -19 -42 -36 -265 -117 l-263 -94 0 -59 c0 -33 3 -59 8
-59 4 0 119 41 256 90 137 50 252 90 257 90 5 0 9 -4 9 -9 0 -9 -51 -30 -273
-111 -65 -23 -121 -49 -124 -57 -3 -7 -2 -33 1 -57 l7 -45 190 66 c164 57 220
70 197 47 -4 -3 -71 -29 -150 -59 l-143 -53 -3 -56 c-2 -42 0 -56 10 -56 8 0
71 20 141 45 71 25 132 45 137 45 6 0 10 -124 10 -320 l0 -321 33 6 c40 7 434
65 442 65 3 0 5 132 5 294 l0 294 39 34 c22 19 67 50 100 68 l60 35 1 158 0
157 -339 0 c-339 0 -340 0 -343 -21z"/>
<path d="M1380 1660 c0 -122 1 -132 18 -125 99 38 330 52 445 26 32 -7 61 -10
65 -7 8 9 -30 85 -62 123 -15 18 -52 44 -84 60 -51 25 -71 28 -197 34 -77 4
-150 10 -162 14 l-23 7 0 -132z m405 0 c16 -18 16 -20 2 -20 -9 0 -21 9 -27
20 -6 11 -7 20 -2 20 5 0 17 -9 27 -20z"/>
<path d="M1770 1224 c-118 -18 -216 -33 -217 -33 -2 -1 -3 -134 -3 -296 l0
-295 -59 -43 -60 -42 0 -182 -1 -183 300 0 300 0 0 23 c0 20 25 31 265 117
l265 95 0 62 0 63 -27 -11 c-162 -62 -497 -178 -501 -174 -12 12 20 26 203 93
l190 69 -4 54 c-1 30 -4 55 -6 57 -1 1 -86 -27 -190 -63 -169 -60 -217 -71
-189 -46 5 5 68 30 139 56 72 26 136 52 143 58 12 9 17 98 6 109 -3 3 -62 -14
-132 -39 -70 -25 -135 -48 -144 -50 -17 -5 -18 15 -18 316 l0 321 -22 -1 c-13
-1 -120 -16 -238 -35z"/>
<path d="M1105 403 c-73 -22 -303 -28 -387 -11 -81 17 -83 13 -41 -64 31 -57
98 -113 152 -128 20 -6 97 -14 171 -18 74 -5 143 -12 153 -16 16 -8 17 2 17
123 0 72 -3 130 -7 130 -5 -1 -30 -8 -58 -16z m-308 -108 c9 -25 -2 -27 -22
-5 -17 18 -17 20 -1 20 9 0 19 -7 23 -15z"/>
</g>
</svg>
