<?xml version="1.0" encoding="UTF-8"?>
<svg version="1.1" xmlns="http://www.w3.org/2000/svg" width="256" height="189">
<path d="M0 0 C23.1 0 46.2 0 70 0 C70 10.89 70 21.78 70 33 C61.31944444 40.63888889 61.31944444 40.63888889 55.80932617 42.26513672 C53.52102804 43.19453591 52.5230678 44.039969 51 46 C50.52599696 48.72285052 50.52599696 48.72285052 50.56762695 51.84838867 C50.54783279 53.0494072 50.52803864 54.25042572 50.50764465 55.48783875 C50.50125473 56.78478165 50.49486481 58.08172455 50.48828125 59.41796875 C50.47143541 60.75891266 50.45328529 62.09984076 50.43388367 63.44075012 C50.38636642 66.96702131 50.35656867 70.49322844 50.33044434 74.01971436 C50.3006472 77.6193914 50.25411406 81.21884768 50.20898438 84.81835938 C50.12293207 91.87877993 50.05559556 98.93926864 50 106 C43.36186747 106.9999716 36.72323035 107.99653901 30.08422852 108.99072266 C27.82499571 109.32945331 25.5658803 109.66896791 23.30688477 110.00927734 C20.06296725 110.49782343 16.81864031 110.98356405 13.57421875 111.46875 C12.56163498 111.62186646 11.54905121 111.77498291 10.50578308 111.93273926 C9.56503433 112.07288452 8.62428558 112.21302979 7.6550293 112.35742188 C6.82674118 112.48177612 5.99845306 112.60613037 5.14506531 112.73425293 C3 113 3 113 0 113 C0 91.88 0 70.76 0 49 C-12.375 53.455 -12.375 53.455 -25 58 C-26.65 58 -28.3 58 -30 58 C-30 54.04 -30 50.08 -30 46 C-34.19611614 45.86925591 -34.19611614 45.86925591 -39 47 C-39.33 42.71 -39.66 38.42 -40 34 C-41.423125 34.495 -42.84625 34.99 -44.3125 35.5 C-47.13135886 36.48047265 -48.98509443 37 -52 37 C-52 32.38 -52 27.76 -52 23 C-50.69329346 22.52578613 -49.38658691 22.05157227 -48.0402832 21.56298828 C-43.18516784 19.80078656 -38.33044108 18.03751642 -33.47583008 16.27392578 C-31.37600086 15.51126496 -29.27606684 14.74889263 -27.17602539 13.98681641 C-24.15483337 12.89041031 -21.13402169 11.79296204 -18.11328125 10.6953125 C-16.70832146 10.18582565 -16.70832146 10.18582565 -15.27497864 9.66604614 C-10.13409403 7.79795244 -10.13409403 7.79795244 -5.05541992 5.76904297 C-3 5 -3 5 0 5 C0 3.35 0 1.7 0 0 Z M-24.1875 41.4375 C-24.90292969 41.72496094 -25.61835938 42.01242188 -26.35546875 42.30859375 C-26.89816406 42.53675781 -27.44085937 42.76492187 -28 43 C-24.59068103 44.13643966 -23.99664544 43.86747764 -20.8125 42.5625 C-19.73935547 42.13130859 -19.73935547 42.13130859 -18.64453125 41.69140625 C-18.10183594 41.46324219 -17.55914062 41.23507813 -17 41 C-20.40931897 39.86356034 -21.00335456 40.13252236 -24.1875 41.4375 Z " fill="#FEFEFE" transform="translate(52,8)"/>
<path d="M0 0 C0 21.12 0 42.24 0 64 C8.91 60.7 17.82 57.4 27 54 C27.66 54 28.32 54 29 54 C29 58.62 29 63.24 29 68 C27.02 68.99 27.02 68.99 25 70 C25.75925781 69.71125 26.51851563 69.4225 27.30078125 69.125 C28.29464844 68.75375 29.28851563 68.3825 30.3125 68 C31.29863281 67.62875 32.28476563 67.2575 33.30078125 66.875 C36 66 36 66 39 66 C39 70.29 39 74.58 39 79 C43.29 77.68 47.58 76.36 52 75 C52 79.95 52 84.9 52 90 C45.72048288 92.24483679 39.43994072 94.48677353 33.15844727 96.72607422 C31.02339996 97.4876548 28.88863079 98.25001559 26.75415039 99.01318359 C23.67928364 100.11242517 20.60341493 101.20882158 17.52734375 102.3046875 C16.57915268 102.6443454 15.63096161 102.9840033 14.65403748 103.33395386 C9.80425044 105.05852147 4.96903465 106.65540253 0 108 C0 109.65 0 111.3 0 113 C-20.46 113 -40.92 113 -62 113 C-62.226875 106.895 -62.45375 100.79 -62.6875 94.5 C-62.78764404 92.58896484 -62.88778809 90.67792969 -62.9909668 88.70898438 C-63.0231338 87.17065892 -63.05115484 85.63223886 -63.07421875 84.09375 C-63.13049438 83.31418945 -63.18677002 82.53462891 -63.24475098 81.73144531 C-63.24931054 79.08855884 -63.10578624 77.41445605 -62 75 C-59.52339172 73.14440918 -59.52339172 73.14440918 -56.51367188 71.30078125 C-52.19495309 68.48500019 -52.19495309 68.48500019 -49.98213196 63.99133301 C-49.63437506 60.31950423 -49.6058026 56.78068683 -49.70703125 53.09375 C-49.70510627 51.75995364 -49.69832705 50.42615632 -49.68693542 49.09240723 C-49.67003679 45.6057293 -49.718441 42.12299685 -49.78112793 38.63696289 C-49.833486 35.07050235 -49.82317466 31.5042605 -49.81835938 27.9375 C-49.81806106 20.95729782 -49.88684894 13.97926106 -50 7 C-46.06777585 6.36936991 -42.1354581 5.73932533 -38.203125 5.109375 C-37.10500488 4.93325684 -36.00688477 4.75713867 -34.87548828 4.57568359 C-6.30382344 0 -6.30382344 0 0 0 Z " fill="#FFFFFF" transform="translate(204,62)"/>
<path d="M0 0 C5.28 0 10.56 0 16 0 C16 2.64 16 5.28 16 8 C15.34 8 14.68 8 14 8 C14 20.54 14 33.08 14 46 C16.97 46 19.94 46 23 46 C24 47 24 47 24.09765625 49.28515625 C24.08605469 50.20167969 24.07445312 51.11820313 24.0625 52.0625 C24.05347656 52.98160156 24.04445312 53.90070312 24.03515625 54.84765625 C24.02355469 55.55792969 24.01195312 56.26820312 24 57 C22.02 57 20.04 57 18 57 C18.00829614 57.61346189 18.01659227 58.22692377 18.02513981 58.85897541 C18.2243978 73.82558775 18.37307024 88.79178974 18.46630955 103.75938892 C18.51260512 110.99787516 18.5756537 118.23547295 18.67895508 125.47338867 C18.76901085 131.78627849 18.82680539 138.09852462 18.84679645 144.41203898 C18.85847429 147.75198379 18.89046318 151.08863833 18.95157051 154.42826271 C19.36396499 177.90762724 19.36396499 177.90762724 13.63256836 185.22143555 C9.75532449 189 9.75532449 189 6 189 C0.98438579 184.62578697 -2.42755914 179.88048309 -2.96203613 173.16586304 C-2.98494187 170.99913124 -2.96459365 168.83164633 -2.90820312 166.66552734 C-2.90995544 164.87843353 -2.90995544 164.87843353 -2.91174316 163.05523682 C-2.90715605 159.81925973 -2.86732186 156.58612732 -2.8111515 153.35071135 C-2.76080388 149.95827047 -2.75641552 146.565761 -2.74694824 143.17300415 C-2.72218062 136.7625176 -2.65666778 130.35313539 -2.57615232 123.943133 C-2.48642534 116.63969014 -2.44267063 109.33619178 -2.40258884 102.03233409 C-2.31918974 87.020943 -2.17867072 72.01058246 -2 57 C-4.31 57 -6.62 57 -9 57 C-9.02688151 55.35425434 -9.04634123 53.70838587 -9.0625 52.0625 C-9.07410156 51.14597656 -9.08570312 50.22945312 -9.09765625 49.28515625 C-9 47 -9 47 -8 46 C-4.7 46 -1.4 46 2 46 C2 33.46 2 20.92 2 8 C1.34 8 0.68 8 0 8 C0 5.36 0 2.72 0 0 Z " fill="#FEFEFE" transform="translate(122,0)"/>
<path d="M0 0 C2.31 0.33 4.62 0.66 7 1 C8.72487251 1.11208046 10.45189917 1.19614698 12.1796875 1.24609375 C13.57380859 1.29540039 13.57380859 1.29540039 14.99609375 1.34570312 C16.90743908 1.40664833 18.81890355 1.46397062 20.73046875 1.51757812 C30.93399427 1.89156627 39.06178038 3.19581175 47 10 C51.30943531 14.78826145 55 19.41597511 55 26 C53.66658348 25.85492922 52.33327236 25.7088897 51 25.5625 C50.16597656 25.47226562 49.33195312 25.38203125 48.47265625 25.2890625 C46.45475225 25.05316219 44.44428469 24.75436074 42.4375 24.4375 C29.86909087 22.91933573 18.28886762 24.3705638 6 27 C4.02 27.33 2.04 27.66 0 28 C0 18.76 0 9.52 0 0 Z " fill="#FFFFFF" transform="translate(137,9)"/>
<path d="M0 0 C0 9.24 0 18.48 0 28 C-4.95 27.01 -4.95 27.01 -10 26 C-13.01456359 25.71288691 -13.01456359 25.71288691 -15.69140625 25.7265625 C-16.65626953 25.7059375 -17.62113281 25.6853125 -18.61523438 25.6640625 C-20.58389586 25.63797023 -22.55267743 25.61977134 -24.52148438 25.609375 C-33.51648902 25.39277288 -40.72993149 22.92300581 -47.42578125 16.7734375 C-51.59673987 12.07464044 -54.36930526 7.36771805 -54 1 C-53.44650879 1.09087891 -52.89301758 1.18175781 -52.32275391 1.27539062 C-49.7580808 1.69171633 -47.19162561 2.09589299 -44.625 2.5 C-43.75488281 2.64308594 -42.88476562 2.78617188 -41.98828125 2.93359375 C-27.07145806 5.25398847 -14.32616121 0 0 0 Z " fill="#FFFFFF" transform="translate(118,146)"/>
</svg>
